<svg class="phone-sociallinks__svg"
    width="22" 
    height="23" 
    viewBox="0 0 22 23" 
    fill="none" 
    xmlns="http://www.w3.org/2000/svg">
    <path d="M21.0001 16.42V19.42C21.0012 19.6985 20.9441 19.9742 20.8326 20.2294C20.721 20.4845 20.5574 20.7136 20.3521 20.9019C20.1469 21.0901 19.9046 21.2335 19.6408 21.3227C19.377 21.4119 19.0974 21.4451 18.8201 21.42C15.7429 21.0856 12.7871 20.0342 10.1901 18.35C7.77388 16.8147 5.72539 14.7662 4.19006 12.35C2.50003 9.74121 1.4483 6.771 1.12006 3.68001C1.09507 3.40347 1.12793 3.12477 1.21656 2.86163C1.30518 2.59849 1.44763 2.35669 1.63482 2.15163C1.82202 1.94656 2.04986 1.78271 2.30385 1.67053C2.55783 1.55834 2.8324 1.50027 3.11006 1.50001H6.11006C6.59536 1.49523 7.06585 1.66708 7.43382 1.98354C7.80179 2.29999 8.04213 2.73945 8.11005 3.22001C8.23668 4.18007 8.47151 5.12273 8.81006 6.03001C8.9446 6.38793 8.97372 6.77692 8.89396 7.15089C8.81421 7.52485 8.62892 7.86812 8.36005 8.14001L7.09006 9.41001C8.51361 11.9136 10.5865 13.9865 13.0901 15.41L14.3601 14.14C14.6319 13.8711 14.9752 13.6859 15.3492 13.6061C15.7231 13.5263 16.1121 13.5555 16.4701 13.69C17.3773 14.0286 18.32 14.2634 19.2801 14.39C19.7658 14.4585 20.2095 14.7032 20.5266 15.0775C20.8437 15.4518 21.0122 15.9296 21.0001 16.42Z" 
    stroke="white" 
    stroke-width="2" 
    stroke-linecap="round" 
    stroke-linejoin="round"/>
</svg>
